<?xml version="1.0" encoding="UTF-8"?> <!-- Creator: CorelDRAW 2019 (64-Bit) --> <svg xmlns="http://www.w3.org/2000/svg" xmlns:xlink="http://www.w3.org/1999/xlink" xml:space="preserve" width="30.4798mm" height="8.4666mm" version="1.1" style="shape-rendering:geometricPrecision; text-rendering:geometricPrecision; image-rendering:optimizeQuality; fill-rule:evenodd; clip-rule:evenodd" viewBox="0 0 3047.98 846.66"> <defs> <style type="text/css"> <![CDATA[ .fil0 {fill:#1F9D77;fill-rule:nonzero} .fil1 {fill:#F67522;fill-rule:nonzero} .fil2 {fill:#3C3C3C;fill-rule:nonzero} ]]> </style> </defs> <g id="Слой_x0020_1"> <metadata id="CorelCorpID_0Corel-Layer"></metadata> <g id="_1875722747984"> <path class="fil0" d="M2428.46 151.64c0,-21.49 5.8,-38.33 17.36,-50.49 11.56,-12.16 26.46,-18.23 44.75,-18.23 11.98,0 22.76,2.87 32.38,8.57 9.6,5.71 16.93,13.67 21.97,23.9 5.04,10.21 7.58,21.79 7.58,34.74 0,13.13 -2.66,24.9 -7.97,35.25 -5.31,10.38 -12.83,18.23 -22.54,23.54 -9.75,5.34 -20.25,8 -31.51,8 -12.22,0 -23.12,-2.96 -32.74,-8.85 -9.6,-5.88 -16.9,-13.91 -21.85,-24.11 -4.95,-10.17 -7.43,-20.94 -7.43,-32.32zm310.86 61.25l-2.64 -17.08c-1.52,0.21 -2.95,0.38 -4.27,0.49 -1.67,0.16 -3.1,0.23 -4.29,0.23 -1.67,0 -3.17,-0.14 -4.49,-0.42 -1.37,-0.29 -2.55,-0.73 -3.53,-1.32 -0.99,-0.6 -1.82,-1.3 -2.51,-2.09 -0.7,-0.79 -1.26,-1.69 -1.68,-2.68 -0.44,-0.99 -0.76,-2.56 -0.96,-4.69 -0.2,-2.08 -0.29,-4.68 -0.29,-7.8l0 -76.55 21.83 0 0 -14.58 -21.83 0 0 -44.07 -17.57 12.3 0 32.33 -18.1 -0.56 0 14.58 18.1 0.57 0 75.31c0,6.54 0.21,11.93 0.65,16.16 0.42,4.18 1.06,7.24 1.9,9.18 0.83,1.93 1.97,3.66 3.42,5.21 2.41,2.56 5.27,5 10.84,6.27 2.97,0.61 6.4,0.91 10.29,0.91 2.36,0 4.88,-0.16 7.54,-0.48 2.41,-0.28 4.94,-0.69 7.59,-1.22zm-167.54 2.98l0 -129.65 48.96 0c8.6,0 15.18,0.43 19.73,1.24 6.37,1.06 11.71,3.08 16.03,6.04 4.31,2.98 7.78,7.15 10.41,12.49 2.62,5.34 3.92,11.23 3.92,17.66 0,10.98 -3.5,20.31 -10.53,27.91 -7,7.64 -19.71,11.44 -38.06,11.44l-33.25 0 0 52.87 -17.21 0zm17.21 -68.08l33.5 0c11.1,0 18.95,-2.05 23.63,-6.19 4.64,-4.13 6.97,-9.93 6.97,-17.44 0,-5.4 -1.36,-10.05 -4.11,-13.91 -2.74,-3.87 -6.37,-6.43 -10.83,-7.67 -2.9,-0.75 -8.24,-1.15 -16,-1.15l-33.16 0 0 46.36zm-142.78 4.15c0,15.6 4.19,27.89 12.58,36.85 8.39,8.96 18.92,13.46 31.6,13.46 12.92,0 23.51,-4.53 31.87,-13.58 8.33,-9.05 12.49,-21.91 12.49,-38.57 0,-10.53 -1.78,-19.74 -5.34,-27.58 -3.56,-7.85 -8.78,-13.95 -15.63,-18.26 -6.88,-4.32 -14.58,-6.49 -23.12,-6.49 -12.13,0 -22.57,4.16 -31.32,12.49 -8.75,8.33 -13.13,22.22 -13.13,41.68z"></path> <g> <g> <g> <path class="fil1" d="M662.82 623.03c-2.31,0.07 -4.33,0 -6.08,-0.35 -5.95,-1.12 -9.37,-4.69 -10.42,-10.7 -0.41,-4.46 -0.89,-5.85 -3.36,-8.88 -2.24,-2.17 -4.89,-3.28 -8.04,-3.28 -1.75,0 -3.35,0.35 -4.82,1.05 -0.56,0.2 -1.05,0.48 -1.54,0.83l-30.42 17.55c-1.39,0.84 -2.51,1.47 -3.28,1.96 -1.68,0.91 -3.57,1.4 -5.59,1.4 -2.94,0 -5.46,-0.91 -7.55,-2.8 -0.15,-0.14 -0.28,-0.28 -0.42,-0.35l-39.79 -34.89c0.98,-0.77 1.96,-1.46 3.01,-2.16 41.74,-30.49 64.18,-65.94 67.19,-106.42 3,-40.48 -14.19,-74.19 -51.74,-100.96 -37.55,-26.78 -84.32,-38.88 -140.4,-36.29 -23.84,1.12 -46.42,4.75 -67.68,10.91l0 0.14c-5.66,1.46 -10.77,4.4 -15.24,8.87 -6.64,6.65 -10,14.76 -10,24.27 0,7.2 1.96,13.63 5.94,19.29 1.19,1.68 2.52,3.29 4.06,4.9 4.26,4.26 9.02,7.13 14.4,8.67l0 0.49c11.12,3.28 21.88,6.92 32.44,11.04 14.97,5.81 29.37,12.45 43.28,20 50.91,27.62 79.29,58.52 85.09,92.71 5.81,34.2 -12.65,61.67 -55.3,82.44 -1.68,0.77 -3.36,1.61 -5.11,2.38 -41.88,19.01 -94.67,26.22 -158.29,21.6 -0.77,-0.07 -1.61,-0.14 -2.38,-0.21 -52.37,-4.06 -99.99,-15.24 -142.7,-33.63l-7.76 6.85c-0.22,0.07 -0.35,0.21 -0.43,0.35 -2.16,1.89 -4.68,2.8 -7.55,2.8 -2.02,0 -3.91,-0.49 -5.59,-1.4 -0.77,-0.49 -1.54,-1.05 -2.17,-1.68l-31.46 -17.83c-0.49,-0.35 -1.05,-0.63 -1.54,-0.83 -1.47,-0.7 -3.15,-1.05 -4.89,-1.05 -3.15,0 -5.88,1.11 -8.04,3.28 -2.52,3.16 -2.84,5.11 -3.36,8.88 -1.05,6.01 -4.47,9.58 -10.42,10.7 -1.82,0.35 -4.74,0.24 -6.08,0.35 -3.94,0.43 -8.32,2.93 -11.61,6.29 -4.47,4.41 -6.71,9.79 -6.71,16.15 0,1.33 0.07,2.59 0.28,3.78 0.21,1.47 0.63,2.94 1.12,4.33 1.33,7.06 -0.42,12.31 -5.24,15.59 -0.78,0.35 -1.54,0.77 -2.24,1.26 -0.49,0.35 -0.91,0.7 -1.4,1.19 -2.24,2.24 -3.35,4.97 -3.35,8.11 0.2,4.06 1.51,6.32 7.05,10.56 33.15,24.61 72.16,45.52 116.98,62.72l3.7 1.26c9.72,3.56 20.63,5.38 32.66,5.38 0.35,0 0.7,0 1.05,0 18.46,-0.21 34.26,-4.69 47.4,-13.43 3.36,-2.23 6.29,-4.61 8.81,-7.05 2.03,-2.03 3.78,-4.06 5.24,-6.16 11.4,-16.08 23.57,-28.25 36.36,-36.5 1.05,-0.76 2.17,-1.4 3.29,-2.02 0.49,-0.35 0.98,-0.63 1.54,-0.84 1.75,-0.91 3.63,-1.61 5.66,-2.03l0.7 -0.28c18.95,-3.43 39.44,-5.18 61.39,-5.18 21.95,0 42.44,1.75 61.39,5.18l0.98 0.35c1.81,0.42 3.56,1.05 5.24,1.96 0.49,0.21 1.05,0.49 1.54,0.84 14.05,8.25 27.27,21.11 39.64,38.52 1.47,2.1 3.22,4.13 5.25,6.16 2.44,2.44 5.38,4.82 8.74,7.05 13.21,8.81 29.08,13.29 47.68,13.43 0.21,0 0.49,0 0.84,0 11.82,0 22.51,-1.82 32.09,-5.38 0.97,-0.48 2.07,-0.86 3.08,-1.26 44.82,-17.2 83.83,-38.11 117.04,-62.72 5.37,-4.06 6.68,-5.96 7,-10.56 0,-3.14 -1.12,-5.87 -3.36,-8.11 -0.42,-0.49 -0.91,-0.84 -1.4,-1.19 -0.7,-0.49 -1.39,-0.91 -2.17,-1.26 -4.89,-3.28 -6.64,-8.53 -5.31,-15.59 0.49,-1.39 0.91,-2.86 1.12,-4.33 0.21,-1.19 0.28,-2.45 0.28,-3.78 0,-6.36 -2.24,-11.74 -6.64,-16.15 -3.36,-3.36 -7.27,-5.45 -11.68,-6.29z"></path> <path class="fil1" d="M251.35 317.83c3.77,-1.82 7.69,-3.63 11.81,-5.38 1.47,-0.63 2.94,-1.26 4.48,-1.89 48.87,-20.28 103.27,-30.41 163.19,-30.34 42.3,-0.07 78.66,5.03 109,15.17 12.38,-30.9 24.68,-77.05 36.92,-138.44 0.49,-1.82 0.84,-3.64 1.12,-5.52 0,-0.22 0,-0.42 0.07,-0.63 0.21,-1.89 0.28,-3.78 0.28,-5.74 0,-12.44 -4.41,-23.07 -13.15,-31.81 -8.81,-8.81 -19.43,-13.22 -31.88,-13.22 -8.6,0 -16.36,2.1 -23.28,6.36 -110.4,-64.46 -209.34,-64.39 -296.81,0.15 -6.92,-4.34 -14.75,-6.51 -23.49,-6.51 -12.45,0 -23.07,4.41 -31.81,13.22 -8.82,8.74 -13.22,19.37 -13.22,31.81 0,1.96 0.14,3.85 0.35,5.74 0,0.21 0,0.41 0.07,0.63 0.21,1.88 0.56,3.7 1.05,5.52 14.19,71.11 28.45,121.8 42.86,152 0.63,1.05 0.98,2.24 1.19,3.5 0.07,0.63 0.14,1.26 0.14,1.95 0,3.15 -1.12,5.81 -3.36,8.05 -1.51,1.71 -2.67,2.53 -4.12,3.21 -1.05,0.35 -2.03,0.77 -3.08,1.19 -23.57,9.58 -43.98,25.17 -61.32,46.92 -19.5,24.26 -30.35,50.55 -32.58,78.79 -0.35,3.57 -0.49,7.14 -0.49,10.56 0,23.43 6.92,43.49 20.84,60.2 10.48,12.66 23.28,21.47 38.45,26.29 0.42,0.14 0.84,0.28 1.26,0.42l1.68 0.49c1.46,0.42 2.93,0.77 4.47,1.12 81.6,20.21 140.54,20.21 176.83,0.07 3.77,-1.54 7.27,-3.77 10.42,-6.78 0.21,-0.28 0.48,-0.56 0.76,-0.84 6.72,-6.64 10.07,-14.75 10.07,-24.19 0,-9.51 -3.35,-17.62 -10.07,-24.26 -5.66,-5.67 -12.3,-8.95 -19.99,-9.79 -8.32,-0.84 -16.36,-1.89 -24.12,-3.22 -0.42,-0.07 -0.84,-0.14 -1.26,-0.21 -11.82,-2.03 -22.94,-4.61 -33.36,-7.76 -15.1,-4.54 -28.73,-10.28 -40.97,-17.2 -35.86,-20.28 -49.15,-44.75 -39.92,-73.41 2.17,-6.79 5.45,-13.36 9.86,-19.58 11.6,-16.71 30.97,-31.82 58.1,-45.17 0.21,-0.14 0.35,-0.21 0.56,-0.28 0.77,-0.42 1.61,-0.84 2.45,-1.19zm91.8 -150.04c1.75,-1.19 3.71,-1.75 5.87,-1.82l23.43 0c2.16,0.07 4.12,0.63 5.87,1.82 0.63,0.41 1.26,0.9 1.89,1.53 2.23,2.24 3.35,4.97 3.35,8.11 0,1.75 -0.34,3.29 -0.98,4.76 -0.07,0.07 -0.07,0.21 -0.14,0.28l-10.48 21.39c-0.28,0.77 -0.63,1.54 -1.12,2.31 -0.07,0.28 -0.21,0.56 -0.28,0.84 0.49,0.07 1.05,0.21 1.54,0.35l2.09 0.42c0.21,0.07 0.36,0.07 0.56,0.14 0.21,0.07 0.35,0.07 0.56,0.14l78.94 18.67 0.14 0c0.14,0.07 0.28,0.07 0.42,0.14 1.75,0.35 3.5,0.56 5.38,0.7l0 -0.07c1.05,0.07 2.17,0.14 3.29,0.14 7.97,0 14.82,-1.82 20.49,-5.53 2.3,-1.61 4.12,-3.28 5.38,-5.1l-0.14 0.28c0.07,-0.21 0.21,-0.35 0.28,-0.49 0,-0.07 0,-0.07 0.07,-0.07 0.14,-0.35 0.28,-0.63 0.49,-0.91 0,-0.07 0,-0.14 0.07,-0.21l11.68 -21.54c0.91,-1.67 2.23,-2.79 4.05,-3.28 1.75,-0.56 3.5,-0.42 5.18,0.49 1.67,0.91 2.79,2.23 3.35,4.05 0.49,1.82 0.35,3.57 -0.56,5.25l-11.54 21.32c-0.28,0.63 -0.62,1.19 -0.97,1.75l0 0.07c-0.14,0.21 -0.28,0.35 -0.35,0.56 -0.07,0.07 -0.14,0.21 -0.14,0.28 -2.1,3.29 -5.18,6.22 -9.23,8.95 -7.76,5.24 -17.13,7.83 -28.11,7.83 -1.4,0 -2.8,-0.07 -4.12,-0.14 -2.59,-0.21 -5.11,-0.49 -7.49,-0.98 -0.14,0 -0.28,0 -0.35,-0.07l-79.28 -18.74c-0.21,-0.07 -0.42,-0.07 -0.56,-0.14 -0.07,-0.07 -0.21,-0.07 -0.28,-0.07l-2.24 -0.49c-5.24,-1.18 -10.28,-1.33 -15.1,-0.42l-83.7 19.79 0.07 0c-0.13,0 -0.27,0 -0.41,0.07 -0.14,0.07 -0.28,0.07 -0.35,0.07 -3.64,0.77 -7.56,1.12 -11.68,1.12 -10.98,0 -20.28,-2.59 -27.97,-7.83 -4.12,-2.73 -7.27,-5.73 -9.3,-9.02 -0.21,-0.35 -0.42,-0.63 -0.56,-0.91 -0.35,-0.63 -0.7,-1.26 -0.97,-1.89l-11.47 -21.11c-0.91,-1.68 -1.05,-3.43 -0.49,-5.25 0.49,-1.82 1.61,-3.14 3.28,-4.05 1.68,-0.91 3.43,-1.05 5.25,-0.49 1.75,0.49 3.14,1.61 4.05,3.28l11.61 21.54c0.07,0.21 0.21,0.42 0.35,0.63 0,0.07 0,0.14 0.07,0.21 0.14,0.14 0.28,0.28 0.35,0.49 0,0.07 0,0.07 0.07,0.14 1.19,1.82 3.01,3.49 5.31,5.03 5.66,3.71 12.45,5.53 20.42,5.53 3.08,0 5.94,-0.28 8.67,-0.77 0.14,-0.07 0.28,-0.07 0.49,-0.14l0.07 0 83.83 -19.79 0.42 -0.14c-0.07,-0.21 -0.07,-0.42 -0.14,-0.63 -0.49,-0.77 -0.84,-1.54 -1.12,-2.31l-10.49 -20.2c-0.48,-0.63 -0.83,-1.33 -1.04,-2.1 -0.49,-1.33 -0.77,-2.66 -0.77,-4.13 0,-3.14 1.12,-5.87 3.35,-8.11 0.56,-0.63 1.19,-1.12 1.89,-1.53zm82.71 -27.97c-2.16,2.23 -4.89,3.35 -8.04,3.35 -3.15,0 -5.87,-1.12 -8.11,-3.35 -2.16,-2.24 -3.28,-4.89 -3.28,-8.04 0,-3.15 1.12,-5.88 3.28,-8.11 2.24,-2.24 4.96,-3.36 8.11,-3.36 3.15,0 5.88,1.12 8.04,3.36 2.24,2.23 3.36,4.96 3.36,8.11 0,3.15 -1.12,5.8 -3.36,8.04zm-114.1 0c-2.24,2.23 -4.97,3.35 -8.11,3.35 -3.15,0 -5.88,-1.12 -8.04,-3.35 -2.24,-2.24 -3.36,-4.89 -3.36,-8.04 0,-3.15 1.12,-5.88 3.36,-8.11 2.16,-2.24 4.89,-3.36 8.04,-3.36 3.14,0 5.87,1.12 8.11,3.36 2.23,2.23 3.35,4.96 3.35,8.11 0,3.15 -1.12,5.8 -3.35,8.04z"></path> <path class="fil0" d="M452.57 750.56c-0.48,-0.63 -0.98,-1.19 -1.47,-1.82 -28.17,8.32 -58.03,12.45 -89.63,12.45 -27.97,0 -54.61,-3.29 -79.92,-9.79 -3.21,-0.84 -6.43,-1.75 -9.65,-2.66 -0.49,0.63 -0.98,1.19 -1.46,1.82 -12.52,14.48 -29.58,22.79 -51.32,24.82 43.41,19.3 90.89,28.95 142.35,28.95 51.39,0 98.86,-9.65 142.28,-28.95 -21.67,-2.03 -38.73,-10.34 -51.18,-24.82zm260.24 -297.57c0,-97.05 -34.33,-179.91 -102.92,-248.5 -4.61,-4.61 -9.3,-9.09 -14.05,-13.35 -2.66,23 -6.3,39.43 -10.98,49.29 56.57,59.08 84.88,129.91 84.88,212.49 0,45.93 -8.74,88.3 -26.29,126.97 8.53,1.75 13.64,6.92 15.38,15.38 1.68,8.46 7.21,14.4 16.5,17.83 24.97,-48.17 37.41,-101.59 37.48,-160.11zm-585.64 -261.92c-4.82,4.26 -9.51,8.74 -14.19,13.42 -68.59,68.59 -102.86,151.45 -102.79,248.5 -0.07,58.59 12.45,112.01 37.48,160.18 9.3,-3.43 14.83,-9.44 16.5,-17.9 1.75,-8.46 6.85,-13.63 15.38,-15.38 -17.54,-38.67 -26.28,-81.04 -26.28,-126.97 0,-82.58 28.31,-153.41 84.88,-212.49 -4.69,-9.86 -8.39,-26.36 -10.98,-49.36z"></path> </g> </g> <path class="fil2" d="M1906.61 498.33c0.18,26.22 5.28,50.44 15.3,72.84 14.02,31.51 35.33,56.28 63.92,74.67 28.41,18.58 61.92,28.05 100.35,28.6 28.77,-0.55 55.18,-5.83 79.22,-15.85 24.22,-10.2 45.35,-22.4 63.38,-36.78 5.64,-4.56 10.75,-9.11 15.66,-13.48 2.55,-2.37 5.1,-4.74 7.47,-7.11 24.22,-22.58 48.44,-40.97 72.3,-55.36 2.37,8.56 5.28,17.12 9.11,25.31 14.02,31.51 35.33,56.28 63.92,74.67 28.59,18.58 62.1,28.05 100.53,28.6 28.59,-0.55 55,-5.83 79.04,-15.85 10.92,-4.55 21.12,-9.65 30.78,-14.93 33.48,-18.88 122.35,-72.3 142.42,-92.7 -4.89,29.64 -1.11,62.86 18.57,86.69 17.67,20.94 45.53,32.23 83.96,33.87 18.39,-0.18 36.78,-3.09 55.54,-8.74 18.4,-5.65 35.33,-13.84 50.82,-24.22 15.11,-10.56 27.13,-22.77 36.06,-36.42 1.45,-1.64 2.37,-3.1 2.73,-4.56 0.73,-1.46 1.27,-2.92 1.46,-4.37 0.54,-3.28 -0.19,-5.83 -2.19,-7.65 -2,-2 -5.1,-3.09 -9.29,-2.91 -2.73,-0.18 -7.83,0 -14.93,0.54 -7.11,0.55 -12.75,0.73 -17.31,0.73 -11.11,0.55 -20.39,-1.27 -27.86,-5.1 -7.83,-3.82 -12.93,-11.84 -15.66,-24.22 -2.92,-12.38 -3.1,-31.14 -0.36,-56.27l11.11 -77.77c34.6,-28.77 67.56,-57.91 98.7,-87.23 1.82,-1.28 3.46,-2.92 4.92,-4.74 2,-2.55 3.82,-5.1 5.46,-7.83 2.74,-5.1 4.74,-10.56 5.65,-16.58 1.27,-10.37 -0.37,-18.94 -5.1,-25.49 -4.55,-7.1 -11.47,-10.75 -21.13,-10.93 -0.73,0 -6.73,0 -17.84,0 -11.11,0.18 -27.5,0.55 -49,0.73 -0.18,-0.18 0.55,-3.82 1.82,-10.75 1.28,-6.91 3.1,-16.93 5.47,-30.04 2.37,-13.48 4.19,-24.04 5.46,-31.69 1.28,-7.47 2.19,-11.84 2.37,-13.11 1.82,-13.12 0.19,-22.95 -5.1,-29.69 -5.1,-6.74 -13.66,-10.2 -25.86,-10.02 -5.82,0 -12.38,0.73 -19.67,2.19 -7.46,1.28 -15.48,3.65 -24.4,7.1l-0.73 0c-9.29,2.37 -20.4,6.19 -33.33,11.84 -13.11,5.28 -25.13,12.93 -35.88,23.31 -11.1,10.38 -18.02,24.41 -21.12,42.44l-2 13.65c-0.37,4.56 -0.73,8.74 -1.1,12.93 -0.55,3.83 -1.09,7.65 -1.63,11.11l-11.48 0c-9.47,-0.18 -17.12,2.92 -22.95,8.93 -5.46,6.19 -8.92,15.11 -10.56,26.77l-0.18 0.72c-0.91,6.38 -1.09,12.03 -0.36,16.58 0.54,4.01 1.81,7.29 3.45,10.01 4.19,6.2 10.93,9.29 20.4,9.29l13.11 0 -22.03 155.35c-40.68,29.19 -82.97,56.98 -131.49,71.03 -19.85,5.64 -38.98,8.56 -57.55,8.56 -27.87,0 -49.9,-5.47 -66.29,-16.21 -16.57,-11.11 -27.32,-27.69 -31.87,-49.35 10.38,2 21.12,3.45 32.6,4.55 11.29,0.54 22.76,0.91 34.41,0.91 28.96,0.18 57.01,-3.28 83.96,-10.74 6.01,-1.64 12.02,-3.65 17.67,-5.83 19.49,-7.65 36.42,-18.4 51.17,-32.42 19.13,-18.03 31.15,-42.62 36.24,-73.76 2.92,-21.31 -1.27,-42.07 -12.38,-61.92 -1.82,-3.28 -3.82,-6.37 -5.83,-9.47 -11.29,-16.03 -27.31,-29.68 -48.07,-40.79 -24.77,-13.12 -56.1,-19.86 -93.8,-20.4 -43.16,0.54 -82.13,10.01 -117.28,28.59 -17.67,9.29 -33.88,20.03 -48.45,32.6 -14.38,12.2 -27.13,26.04 -38.42,41.52 -22.77,31.15 -36.97,66.11 -42.62,104.9 -1.45,10.75 -2.19,21.13 -2,31.15 -29.69,29.52 -88.34,67.42 -136.23,75.21 -8.19,0.91 -16.39,1.46 -24.22,1.46 -27.86,0 -49.9,-5.47 -66.29,-16.21 -16.57,-11.11 -27.32,-27.69 -31.87,-49.35 10.38,2 21.12,3.45 32.6,4.55 11.29,0.54 22.76,0.91 34.24,0.91 29.14,0.18 57.18,-3.28 84.14,-10.74 6,-1.64 11.83,-3.65 17.48,-5.83 19.48,-7.65 36.6,-18.4 51.36,-32.42 19.12,-18.03 31.14,-42.62 36.24,-73.76 2.73,-21.31 -1.46,-42.07 -12.57,-61.92 -1.82,-3.28 -3.82,-6.37 -5.83,-9.47 -11.11,-16.03 -27.13,-29.68 -48.08,-40.79 -24.77,-13.12 -55.9,-19.86 -93.6,-20.4 -43.17,0.54 -82.32,10.01 -117.29,28.59 -17.66,9.29 -33.88,20.03 -48.44,32.6 -14.39,12.2 -27.14,26.04 -38.43,41.52 -15.12,20.58 -26.41,42.98 -33.87,66.84 -7.47,-1.27 -14.75,-2.37 -21.68,-3.46 4.01,-35.88 3.1,-65.56 -2.91,-89.24 -1.28,-5.65 -2.92,-10.74 -4.55,-15.66 -6.38,-18.4 -16.03,-32.42 -28.59,-42.07 -15.49,-12.75 -34.43,-19.12 -56.83,-19.12 -16.93,0.18 -32.6,3.46 -47.35,9.65 -15.11,6.38 -27.32,13.66 -36.97,21.86 -6.74,5.82 -11.47,11.28 -14.02,16.2 -0.36,0.55 -0.73,1.28 -0.91,2.01 -0.73,1.45 -1.09,2.91 -1.27,4.37l-0.92 -0.37c-1.45,2.55 -2.73,5.1 -3.82,7.47 -19.67,43.16 -2.19,78.13 52.45,104.72 -0.18,12.57 -1.46,26.77 -3.64,42.61 -1.64,10.75 -3.65,20.95 -6.01,30.24l0 0c-6.38,25.31 -14.94,45.34 -26.04,60.09 -15.3,19.85 -32.42,29.87 -51.18,29.87 -12.02,0.18 -19.49,-5.46 -22.58,-17.12 -2.74,-11.47 -2.19,-30.23 1.82,-55.91 0.18,-1.46 0.91,-7.1 2.55,-16.93 0.18,-1.83 0.54,-3.83 0.91,-6.01 2.18,-14.03 4.73,-30.42 7.83,-49.36 3.1,-19.49 6.01,-38.24 8.92,-56.46 2.92,-18.57 5.29,-33.32 6.92,-44.25 1.64,-10.02 2.37,-14.39 2.37,-13.11 0.18,-2.92 0.36,-5.65 0.55,-8.38 0.18,-12.2 -2.37,-22.4 -7.84,-30.23 -6.55,-10.2 -15.48,-17.67 -26.95,-22.4 -11.47,-4.74 -23.13,-7.1 -35.33,-6.92l-0.73 0c-12.2,-0.18 -24.77,2.18 -37.33,6.92 -12.75,4.91 -23.86,12.38 -33.15,22.4 -7.65,8.19 -12.93,18.21 -16.03,30.23 -0.91,2.91 -1.45,6.01 -2,9.11 -0.18,2 -2.36,18.39 -6.19,49.35 -3.64,28.05 -9.11,67.75 -16.21,119.11 -0.91,5.46 -1.64,11.11 -2.37,16.93 -3.82,24.59 -10.56,42.8 -20.21,55 -9.65,12.02 -20.03,18.03 -31.14,18.03 -25.32,0 -36.06,-20.58 -32.6,-61.55l4.37 -28.41 18.94 -123.66c2,-14.03 3.82,-24.95 5.1,-32.6 1.27,-7.47 1.82,-11.66 2,-12.2 0.36,-3.1 0.55,-6.2 0.73,-9.11 0.18,-12.2 -2.37,-22.4 -7.83,-30.23 -6.56,-10.2 -15.48,-17.67 -26.96,-22.4 -11.47,-4.74 -23.13,-7.1 -35.33,-6.92l-0.73 0c-5.64,-0.18 -11.29,0.36 -16.93,1.45 -0.55,0 -0.91,0 -1.46,0.18 -6.92,1.83 -13.84,3.65 -20.58,5.65 -26.41,7.47 -52.45,15.84 -78.49,25.32 -10.38,3.82 -20.95,7.83 -32.06,12.2 -0.54,-0.55 -1.09,-1.28 -1.63,-1.83 -14.94,-14.75 -35.34,-25.85 -61.2,-33.5 -26.04,-7.47 -54.82,-11.11 -86.5,-11.11 -28.23,0.18 -55.91,5.28 -83.23,15.3 -27.5,10.19 -50.99,24.4 -70.48,42.61 -1.09,1.1 -2.19,2.19 -3.28,3.28 -17.66,17.85 -28.41,38.61 -32.24,62.47l-0.36 2.55c-3.1,27.5 3.46,51.17 19.67,71.02 14.75,17.85 35.15,31.69 61.01,41.53 2.18,0.91 4.37,1.64 6.74,2.55l22.58 7.28c14.75,4.19 28.23,8.74 40.43,13.48 12.2,4.91 21.67,10.74 28.41,17.48 6.74,6.56 9.47,14.75 8.38,24.77 -1.64,11.66 -6.56,20.4 -14.57,26.04 -8.01,5.65 -18.39,8.38 -31.32,8.56 -13.66,0 -23.86,-4.19 -30.97,-12.38 -6.73,-7.84 -9.28,-19.31 -7.28,-34.06 0.36,-3.46 0.91,-6.92 1.82,-10.38 0.73,-3.46 1.28,-6.56 1.82,-9.65 1.1,-7.47 -2.91,-13.3 -12.02,-17.85 -8.74,-4.19 -23.49,-6.19 -44.25,-6.19 -22.04,0.36 -40.8,7.1 -55.91,20.03 -15.3,12.75 -24.59,29.14 -27.68,49.17 -2.37,18.58 1.45,34.24 11.47,47.17 10.02,12.57 23.86,22.77 41.16,30.42 17.48,7.46 36.24,12.93 56.09,16.39 19.85,3.09 38.43,4.73 56.09,4.91 21.68,-0.18 44.44,-2.18 67.93,-6.37 23.5,-4.55 45.9,-11.66 66.84,-21.31 20.58,-9.47 38.06,-22.22 52.45,-38.06 14.39,-15.85 23.31,-35.33 26.95,-58.28 2.74,-19.85 -0.36,-37.88 -9.28,-53.72 -3.28,-5.65 -7.29,-11.11 -11.84,-16.39 -18.03,-19.86 -47.17,-35.7 -87.05,-47.54l-0.18 0.37c-17.31,-6.74 -32.79,-12.02 -46.81,-16.21 -14.02,-4.01 -24.77,-9.47 -32.6,-16.21 -7.83,-6.38 -10.93,-16.39 -9.29,-30.23 1.64,-8.56 6.38,-16.76 14.21,-24.22 7.83,-7.11 17.66,-10.93 29.32,-11.48 12.38,-0.18 21.12,3.28 26.22,10.38 4.92,7.11 6.2,18.22 4.19,32.97 -0.18,0.54 -0.18,1.27 -0.36,1.82 -0.55,3.46 -1.1,6.92 -1.64,10.2 -0.91,3.64 -1.46,6.73 -1.64,9.28 -0.18,0.37 -0.18,0.73 -0.18,1.28 -0.91,6.19 2.55,11.29 10.38,15.3 8.01,4.18 22.22,6.55 42.43,6.74 23.68,-0.55 42.8,-6.74 57.37,-18.95 14.39,-12.38 23.13,-28.04 26.05,-46.98 0.36,-2.73 0.54,-5.47 0.54,-8.2 8.56,-5.09 16.76,-4.73 24.95,1.28 8.19,6.37 11.11,23.68 8.38,51.9l-0.73 5.83c-3.83,28.96 -6.74,53.18 -8.74,72.67 -0.73,6 -1.28,11.47 -1.83,16.39 -2.91,25.13 -4.37,39.52 -4.19,42.97 1.1,26.96 7.66,50.64 19.49,70.85 11.84,20.03 27.87,35.7 48.08,46.8 20.22,11.11 43.16,16.76 68.84,17.12 25.32,-0.18 48.81,-4.91 70.3,-14.2 21.49,-9.29 40.61,-23.49 57.37,-42.25 14.39,18.76 32.96,32.96 55.37,42.25 22.76,9.29 49.53,14.02 79.94,14.2l4.56 0c35.51,-0.54 66.29,-6.92 92.51,-18.75 26.05,-12.02 48.27,-27.51 66.3,-46.62 18.03,-19.31 32.96,-39.89 44.43,-61.75 9.11,-17.48 16.39,-34.42 22.04,-50.62l0 0c1.27,-3.83 2.37,-7.83 3.64,-11.66 1.46,-5.1 2.92,-10.02 4.19,-14.75 6.74,2 13.66,3.83 20.58,5.64 -0.55,7.11 -0.91,14.03 -0.73,20.77zm1027.52 -158.08l0 -0.19 0 0.19zm-407.59 12.93c6.74,-4.01 13.12,-6.38 19.31,-7.1l2.18 0c0.55,0 0.73,-0.19 0.91,-0.37 -0.18,-0.36 0.55,-0.54 1.83,-0.36 11.47,0.18 20.21,3.82 26.41,10.92 6,6.56 8.19,15.12 6.91,25.86 -2.73,19.13 -11.65,34.06 -27.13,44.81 -15.12,10.74 -36.06,16.2 -62.83,16.39 -2.92,0 -6.2,0 -9.66,0 -3.27,-0.19 -6.73,-0.37 -10.2,-0.92 5.11,-23.12 12.03,-41.88 20.95,-56.63 8.56,-15.12 18.94,-26.05 31.32,-32.6zm-411.4 0c6.74,-4.01 13.11,-6.38 19.12,-7.1l2.19 0c0.54,0 0.72,-0.19 0.91,-0.37 0,-0.36 0.54,-0.54 1.82,-0.36 11.47,0.18 20.21,3.82 26.59,10.92 6.01,6.56 8.19,15.12 6.92,25.86 -2.73,19.13 -11.66,34.06 -27.14,44.81 -15.11,10.74 -36.24,16.2 -63.01,16.39 -2.92,0 -6.19,0 -9.65,0 -3.1,-0.19 -6.56,-0.37 -10.02,-0.92 5.1,-23.12 12.02,-41.88 20.76,-56.63 8.56,-15.12 18.94,-26.05 31.51,-32.6z"></path> </g> </g> </g> </svg> 